<svg xmlns="http://www.w3.org/2000/svg" xmlns:xlink="http://www.w3.org/1999/xlink" width="500" zoomAndPan="magnify" viewBox="0 0 375 374.999991" height="500" preserveAspectRatio="xMidYMid meet" version="1.0"><defs><clipPath id="77e2f4ffa0"><path d="M 6.554688 6.554688 L 368.441406 6.554688 L 368.441406 368.441406 L 6.554688 368.441406 Z M 6.554688 6.554688 " clip-rule="nonzero"/></clipPath></defs><g clip-path="url(#77e2f4ffa0)"><path fill="#000000" d="M 347.332031 368.441406 C 304.105469 368.441406 261.972656 358.808594 220.925781 339.542969 C 179.875 320.277344 143.519531 294.808594 111.855469 263.144531 C 80.191406 231.480469 54.722656 195.121094 35.457031 154.074219 C 16.191406 113.027344 6.554688 70.890625 6.554688 27.664062 C 6.554688 21.632812 8.566406 16.609375 12.585938 12.585938 C 16.609375 8.566406 21.632812 6.554688 27.664062 6.554688 L 109.089844 6.554688 C 113.78125 6.554688 117.96875 8.0625 121.65625 11.078125 C 125.34375 14.09375 127.519531 17.949219 128.191406 22.640625 L 141.257812 93.007812 C 141.929688 97.699219 141.84375 101.96875 141.007812 105.824219 C 140.167969 109.675781 138.242188 113.113281 135.226562 116.128906 L 86.976562 165.382812 C 101.046875 189.507812 118.640625 212.128906 139.75 233.238281 C 160.859375 254.347656 184.148438 272.609375 209.613281 288.023438 L 256.859375 240.777344 C 259.875 237.761719 263.8125 235.5 268.671875 233.992188 C 273.53125 232.484375 278.304688 232.066406 282.996094 232.734375 L 352.359375 246.808594 C 357.050781 247.8125 360.902344 250.074219 363.917969 253.59375 C 366.933594 257.113281 368.441406 261.21875 368.441406 265.90625 L 368.441406 347.332031 C 368.441406 353.363281 366.433594 358.390625 362.410156 362.410156 C 358.390625 366.433594 353.363281 368.441406 347.332031 368.441406 Z M 347.332031 368.441406 " fill-opacity="1" fill-rule="nonzero"/></g></svg>