<svg xmlns="http://www.w3.org/2000/svg" xmlns:xlink="http://www.w3.org/1999/xlink" width="500" zoomAndPan="magnify" viewBox="0 0 375 374.999991" height="500" preserveAspectRatio="xMidYMid meet" version="1.0"><defs><clipPath id="68c46f1341"><path d="M 27 12.441406 L 348 12.441406 L 348 362.691406 L 27 362.691406 Z M 27 12.441406 " clip-rule="nonzero"/></clipPath></defs><g clip-path="url(#68c46f1341)"><path fill="#000000" d="M 67.039062 362.550781 C 56.039062 362.550781 46.617188 358.632812 38.78125 350.796875 C 30.945312 342.960938 27.027344 333.539062 27.027344 322.535156 L 27.027344 142.480469 C 27.027344 136.144531 28.445312 130.144531 31.28125 124.476562 C 34.113281 118.808594 38.03125 114.140625 43.03125 110.472656 L 163.070312 20.441406 C 166.738281 17.773438 170.574219 15.773438 174.574219 14.441406 C 178.574219 13.105469 182.742188 12.441406 187.078125 12.441406 C 191.414062 12.441406 195.582031 13.105469 199.582031 14.441406 C 203.582031 15.773438 207.417969 17.773438 211.085938 20.441406 L 331.121094 110.472656 C 336.125 114.140625 340.042969 118.808594 342.875 124.476562 C 345.710938 130.144531 347.128906 136.144531 347.128906 142.480469 L 347.128906 322.535156 C 347.128906 333.539062 343.210938 342.960938 335.375 350.796875 C 327.539062 358.632812 318.121094 362.550781 307.117188 362.550781 L 227.089844 362.550781 L 227.089844 222.507812 L 147.066406 222.507812 L 147.066406 362.550781 Z M 67.039062 362.550781 " fill-opacity="1" fill-rule="nonzero"/></g></svg>