<svg xmlns="http://www.w3.org/2000/svg" xmlns:xlink="http://www.w3.org/1999/xlink" width="500" zoomAndPan="magnify" viewBox="0 0 375 374.999991" height="500" preserveAspectRatio="xMidYMid meet" version="1.0"><defs><clipPath id="5266299032"><path d="M 11.335938 40 L 363.660156 40 L 363.660156 323 L 11.335938 323 Z M 11.335938 40 " clip-rule="nonzero"/></clipPath></defs><g clip-path="url(#5266299032)"><path fill="#000000" d="M 328.429688 40.699219 L 46.570312 40.699219 C 27.191406 40.699219 11.515625 56.550781 11.515625 75.929688 L 11.335938 287.324219 C 11.335938 306.703125 27.191406 322.558594 46.570312 322.558594 L 328.429688 322.558594 C 347.808594 322.558594 363.660156 306.703125 363.660156 287.324219 L 363.660156 75.929688 C 363.660156 56.550781 347.808594 40.699219 328.429688 40.699219 Z M 328.429688 111.164062 L 187.5 199.242188 L 46.570312 111.164062 L 46.570312 75.929688 L 187.5 164.011719 L 328.429688 75.929688 Z M 328.429688 111.164062 " fill-opacity="1" fill-rule="nonzero"/></g></svg>