<svg xmlns="http://www.w3.org/2000/svg" xmlns:xlink="http://www.w3.org/1999/xlink" width="500" zoomAndPan="magnify" viewBox="0 0 375 374.999991" height="500" preserveAspectRatio="xMidYMid meet" version="1.0"><defs><clipPath id="8a2bd9081f"><path d="M 20.210938 20.210938 L 354.710938 20.210938 L 354.710938 354.710938 L 20.210938 354.710938 Z M 20.210938 20.210938 " clip-rule="nonzero"/></clipPath></defs><g clip-path="url(#8a2bd9081f)"><path fill="#000000" d="M 187.496094 20.210938 C 142.050781 20.210938 136.375 20.421875 118.53125 21.214844 C 100.71875 22.050781 88.589844 24.851562 77.925781 28.992188 C 66.925781 33.257812 57.585938 38.988281 48.285156 48.285156 C 38.988281 57.585938 33.246094 66.910156 28.992188 77.925781 C 24.851562 88.589844 22.039062 100.71875 21.214844 118.53125 C 20.378906 136.375 20.210938 142.050781 20.210938 187.496094 C 20.210938 232.941406 20.421875 238.617188 21.214844 256.460938 C 22.050781 274.261719 24.851562 286.402344 28.992188 297.066406 C 33.257812 308.054688 38.988281 317.40625 48.285156 326.707031 C 57.585938 335.988281 66.910156 341.746094 77.925781 346 C 88.601562 350.125 100.730469 352.957031 118.53125 353.777344 C 136.375 354.613281 142.050781 354.78125 187.496094 354.78125 C 232.941406 354.78125 238.617188 354.570312 256.460938 353.777344 C 274.261719 352.941406 286.402344 350.125 297.066406 346 C 308.054688 341.734375 317.40625 335.988281 326.707031 326.707031 C 335.988281 317.40625 341.746094 308.09375 346 297.066406 C 350.125 286.402344 352.957031 274.261719 353.777344 256.460938 C 354.613281 238.617188 354.78125 232.941406 354.78125 187.496094 C 354.78125 142.050781 354.570312 136.375 353.777344 118.53125 C 352.941406 100.730469 350.125 88.574219 346 77.925781 C 341.734375 66.925781 335.988281 57.585938 326.707031 48.285156 C 317.40625 38.988281 308.09375 33.246094 297.066406 28.992188 C 286.402344 24.851562 274.261719 22.039062 256.460938 21.214844 C 238.617188 20.378906 232.941406 20.210938 187.496094 20.210938 Z M 187.496094 50.324219 C 232.148438 50.324219 237.472656 50.546875 255.105469 51.3125 C 271.417969 52.078125 280.269531 54.785156 286.152344 57.097656 C 293.988281 60.121094 299.535156 63.746094 305.417969 69.589844 C 311.257812 75.441406 314.882812 81.003906 317.910156 88.839844 C 320.195312 94.722656 322.925781 103.574219 323.667969 119.886719 C 324.460938 137.535156 324.640625 142.832031 324.640625 187.496094 C 324.640625 232.160156 324.433594 237.472656 323.609375 255.105469 C 322.761719 271.417969 320.042969 280.269531 317.742188 286.152344 C 314.617188 293.988281 311.0625 299.535156 305.210938 305.417969 C 299.367188 311.257812 293.722656 314.882812 285.972656 317.910156 C 280.117188 320.195312 271.125 322.925781 254.816406 323.667969 C 237.054688 324.460938 231.828125 324.640625 187.078125 324.640625 C 142.316406 324.640625 137.085938 324.433594 119.339844 323.609375 C 103.015625 322.761719 94.027344 320.042969 88.171875 317.742188 C 80.238281 314.617188 74.789062 311.0625 68.945312 305.210938 C 63.078125 299.367188 59.328125 293.722656 56.402344 285.972656 C 54.101562 280.117188 51.394531 271.125 50.546875 254.816406 C 49.917969 237.25 49.695312 231.828125 49.695312 187.285156 C 49.695312 142.734375 49.917969 137.296875 50.546875 119.523438 C 51.394531 103.210938 54.101562 94.234375 56.402344 88.378906 C 59.328125 80.433594 63.078125 74.996094 68.945312 69.128906 C 74.789062 63.285156 80.238281 59.523438 88.171875 56.609375 C 94.027344 54.296875 102.820312 51.578125 119.132812 50.742188 C 136.90625 50.113281 142.132812 49.902344 186.867188 49.902344 Z M 187.496094 101.59375 C 140.027344 101.59375 101.59375 140.070312 101.59375 187.496094 C 101.59375 234.964844 140.070312 273.398438 187.496094 273.398438 C 234.964844 273.398438 273.398438 234.921875 273.398438 187.496094 C 273.398438 140.027344 234.921875 101.59375 187.496094 101.59375 Z M 187.496094 243.257812 C 156.6875 243.257812 131.734375 218.304688 131.734375 187.496094 C 131.734375 156.6875 156.6875 131.734375 187.496094 131.734375 C 218.304688 131.734375 243.257812 156.6875 243.257812 187.496094 C 243.257812 218.304688 218.304688 243.257812 187.496094 243.257812 Z M 296.871094 98.207031 C 296.871094 109.289062 287.867188 118.28125 276.796875 118.28125 C 265.714844 118.28125 256.722656 109.277344 256.722656 98.207031 C 256.722656 87.140625 265.730469 78.148438 276.796875 78.148438 C 287.851562 78.132812 296.871094 87.140625 296.871094 98.207031 Z M 296.871094 98.207031 " fill-opacity="1" fill-rule="nonzero"/></g></svg>