<svg xmlns="http://www.w3.org/2000/svg" xmlns:xlink="http://www.w3.org/1999/xlink" width="500" zoomAndPan="magnify" viewBox="0 0 375 374.999991" height="500" preserveAspectRatio="xMidYMid meet" version="1.0"><defs><clipPath id="cd9cd28cd8"><path d="M 9.253906 9.253906 L 365.503906 9.253906 L 365.503906 365.503906 L 9.253906 365.503906 Z M 9.253906 9.253906 " clip-rule="nonzero"/></clipPath></defs><g clip-path="url(#cd9cd28cd8)"><path fill="#000000" d="M 340.273438 9.253906 L 34.636719 9.253906 C 20.632812 9.253906 9.253906 20.792969 9.253906 34.957031 L 9.253906 340.035156 C 9.253906 354.199219 20.632812 365.738281 34.636719 365.738281 L 340.273438 365.738281 C 354.28125 365.738281 365.738281 354.199219 365.738281 340.035156 L 365.738281 34.957031 C 365.738281 20.792969 354.28125 9.253906 340.273438 9.253906 Z M 116.996094 314.8125 L 64.160156 314.8125 L 64.160156 144.683594 L 117.074219 144.683594 L 117.074219 314.8125 Z M 90.578125 121.449219 C 73.628906 121.449219 59.941406 107.683594 59.941406 90.816406 C 59.941406 73.945312 73.628906 60.179688 90.578125 60.179688 C 107.445312 60.179688 121.210938 73.945312 121.210938 90.816406 C 121.210938 107.765625 107.523438 121.449219 90.578125 121.449219 Z M 315.050781 314.8125 L 262.214844 314.8125 L 262.214844 232.054688 C 262.214844 212.320312 261.816406 186.9375 234.761719 186.9375 C 207.230469 186.9375 203.011719 208.421875 203.011719 230.625 L 203.011719 314.8125 L 150.175781 314.8125 L 150.175781 144.683594 L 200.863281 144.683594 L 200.863281 167.921875 L 201.578125 167.921875 C 208.660156 154.550781 225.929688 140.46875 251.632812 140.46875 C 305.105469 140.46875 315.050781 175.71875 315.050781 221.554688 Z M 315.050781 314.8125 " fill-opacity="1" fill-rule="nonzero"/></g></svg>